<svg width="853" height="618" viewBox="0 0 853 618" fill="none" xmlns="http://www.w3.org/2000/svg">
<rect width="853" height="618" fill="#E2E8F0"/>
<g clip-path="url(#clip0_0_1)">
<path d="M792.013 555.912H688.013V615.912H792.013V555.912Z" fill="#22E622"/>
<path d="M578.453 602.03C577.519 605.206 577.086 608.909 579.025 611.591C580.096 612.935 581.507 613.968 583.111 614.584C587.238 616.2 591.679 616.851 596.096 616.49C596.942 616.529 597.787 616.392 598.577 616.089C599.368 615.785 600.087 615.321 600.689 614.726C610.937 606.242 617.867 594.419 620.264 581.333C620.458 580.658 620.421 579.937 620.16 579.285C619.823 578.779 619.35 578.378 618.797 578.128C616.517 576.699 614.059 575.577 611.486 574.79C597.408 571.155 581.941 590.162 578.453 602.03Z" fill="#2F2E41"/>
<path d="M726.095 557.533C727.987 559.73 730.318 561.505 732.938 562.745C734.253 563.353 735.689 563.656 737.137 563.632C738.585 563.607 740.01 563.255 741.303 562.603C745.176 560.398 746.273 555.274 745.964 550.828C745.392 542.605 741.464 535.195 736.95 528.477C735.522 526.352 732.36 520.027 729.585 519.948C728.267 519.911 723.338 524.69 721.998 525.6C717.105 528.923 713.715 531.301 714.733 537.68C715.869 544.795 721.307 552.41 726.095 557.533Z" fill="#2F2E41"/>
<path d="M683.189 217.423C662.357 215.807 642.458 216.406 621.587 215.335C619.834 215.245 620.679 235.321 618.862 246.223C617.928 251.826 586.514 580.06 590.413 580.725C600.425 582.82 610.553 584.32 620.743 585.217C624.877 585.581 663.406 371.711 661.56 354.33C666.605 361.729 684.372 395.89 693.357 435.184C705.211 487.03 708.7 545.673 716.068 542.383C720.812 535.87 727.248 530.78 734.679 527.664C746.858 523.134 727.121 273.74 706.269 262.275C706.013 254.975 705.745 247.496 702.994 240.73C699.114 231.187 691.459 223.567 683.189 217.423Z" fill="#2F2E41"/>
<path d="M851.787 617.73H277.706V615.548H852.182L851.787 617.73Z" fill="#3F3D56"/>
<path d="M471.013 294.368H0V387.363H471.013V294.368Z" fill="#E6E6E6"/>
<path d="M471.013 147.426H0V240.421H471.013V147.426Z" fill="#E6E6E6"/>
<path d="M471.013 0H0V92.9949H471.013V0Z" fill="#E6E6E6"/>
<path d="M10.041 82.9534H460.972V10.0413H10.041V82.9534Z" fill="white"/>
<path d="M10.041 230.704H460.972V157.792H10.041V230.704Z" fill="white"/>
<path d="M10.041 377.322H460.972V304.41H10.041V377.322Z" fill="white"/>
<path d="M49.5168 73.6713C64.8579 73.6713 77.2944 61.2348 77.2944 45.8936C77.2944 30.5524 64.8579 18.1159 49.5168 18.1159C34.1756 18.1159 21.7391 30.5524 21.7391 45.8936C21.7391 61.2348 34.1756 73.6713 49.5168 73.6713Z" fill="#22E622"/>
<path d="M390.095 35.024H115.942V41.0627H390.095V35.024Z" fill="#22E622"/>
<path d="M390.095 50.7245H115.942V56.7631H390.095V50.7245Z" fill="#22E622"/>
<path d="M49.5168 222.305C64.8579 222.305 77.2944 209.869 77.2944 194.527C77.2944 179.186 64.8579 166.75 49.5168 166.75C34.1756 166.75 21.7391 179.186 21.7391 194.527C21.7391 209.869 34.1756 222.305 49.5168 222.305Z" fill="#CCCCCC"/>
<path d="M390.095 183.658H115.942V189.696H390.095V183.658Z" fill="#CCCCCC"/>
<path d="M390.095 199.358H115.942V205.397H390.095V199.358Z" fill="#CCCCCC"/>
<path d="M49.5168 369.247C64.858 369.247 77.2945 356.811 77.2945 341.47C77.2945 326.128 64.858 313.692 49.5168 313.692C34.1756 313.692 21.7391 326.128 21.7391 341.47C21.7391 356.811 34.1756 369.247 49.5168 369.247Z" fill="#CCCCCC"/>
<path d="M390.095 330.6H115.942V336.639H390.095V330.6Z" fill="#CCCCCC"/>
<path d="M390.095 346.301H115.942V352.339H390.095V346.301Z" fill="#CCCCCC"/>
<path d="M678.057 58.2158C667.244 39.946 645.852 39.0946 645.852 39.0946C645.852 39.0946 625.007 36.4289 611.635 64.2541C599.172 90.1894 581.97 115.23 608.866 121.302L613.724 106.181L616.733 122.427C620.562 122.703 624.404 122.769 628.241 122.624C657.044 121.694 684.475 122.896 683.592 112.56C682.418 98.8203 688.46 75.795 678.057 58.2158Z" fill="#2F2E41"/>
<path d="M638.168 120.463C638.22 122.519 638.205 124.688 637.183 126.474C635.157 130.013 630.212 130.542 627.237 133.332C624.109 136.266 623.755 141.027 623.606 145.312C623.45 149.793 623.318 154.421 624.953 158.596C625.955 160.896 627.221 163.071 628.726 165.078C630.542 167.696 632.375 170.302 634.225 172.896C635.212 174.358 636.313 175.739 637.517 177.028C640.83 180.403 645.374 182.271 649.911 183.603C652.842 184.464 656.007 185.135 658.916 184.2C660.84 183.449 662.614 182.358 664.152 180.98C666.401 179.367 668.398 177.431 670.08 175.235C672.522 171.692 673.198 167.257 673.704 162.984C675.201 150.348 675.783 137.62 675.447 124.9C675.508 123.514 675.26 122.132 674.72 120.854C673.214 117.912 669.179 117.284 667.053 114.754C665.236 112.591 665.162 109.504 665.177 106.679L665.217 99.4867C665.28 98.8807 665.158 98.2698 664.867 97.7345C664.604 97.4461 664.286 97.2127 663.932 97.0475C663.578 96.8824 663.195 96.7887 662.804 96.7719C658.334 96.0301 653.802 95.7269 649.273 95.8666C645.601 95.9788 638.555 95.6715 635.38 97.7166C632.498 99.573 636.107 104.7 636.774 107.58C637.672 111.817 638.139 116.133 638.168 120.463V120.463Z" fill="#FFB8B8"/>
<path d="M646.596 108.112C662.652 108.112 675.668 95.0964 675.668 79.0409C675.668 62.9854 662.652 49.9699 646.596 49.9699C630.541 49.9699 617.526 62.9854 617.526 79.0409C617.526 95.0964 630.541 108.112 646.596 108.112Z" fill="#FFB8B8"/>
<path d="M640.013 141.912C625.009 94.3638 617.104 161.149 607.644 179.384C607.732 191.957 608.073 226.731 611.013 239.912C622.436 291.114 679.003 287.094 696.013 243.912C705.074 220.909 684.973 163.9 685.654 137.3C660.744 112.059 659.207 192.137 640.013 141.912Z" fill="#22E622"/>
<path d="M623.543 125.602C591.031 141.404 606.542 183.858 594.757 211.642C585.345 249.76 561.409 261.747 616.137 262.635C627.929 227.792 616.411 189.945 632.489 154.467C633.596 140.572 638.362 135.346 637.94 123.579C634.788 118.696 626.621 124.089 623.543 125.602Z" fill="#575A88"/>
<path d="M673.276 56.455L652.142 45.384L622.957 49.913L616.919 76.583L631.95 76.004L636.149 66.206V75.842L643.084 75.576L647.111 59.977L649.626 76.583L674.283 76.079L673.276 56.455Z" fill="#2F2E41"/>
<path d="M660.204 138.985C676.937 137.032 660.623 116.936 673.905 117.278C713.676 110.588 725.574 135.221 710.449 169.602C696.585 197.14 745.629 235.823 718.231 251.232C708.507 254.802 694.583 266.029 685.08 261.141C669.823 222.793 669.271 178.978 660.204 138.985Z" fill="#575A88"/>
<path d="M706.779 248.46C700.953 251.246 696.344 255.677 692.444 260.825C691.618 261.915 692.725 263.948 695.2 263.914C697.502 263.883 698.877 260.931 701.179 260.9C701.883 267.054 703.157 273.128 704.985 279.046C709.578 275.012 712.328 269.335 714.959 263.818L720.16 252.912C722.07 248.909 723.98 244.903 725.701 240.815C726.169 239.859 726.459 238.826 726.555 237.766C726.781 230.731 719.845 230.688 716.853 235.091C713.581 239.907 712.562 245.694 706.779 248.46Z" fill="#FFB8B8"/>
<path d="M707.975 127.507C712.422 132.128 716.901 136.789 720.353 142.193C723.805 147.598 741.663 196.208 742.387 197.239C744.965 201.043 741.953 210.879 741.801 211.442C741.503 213.208 737.778 230.845 736.844 234.74C736.191 237.465 736.199 240.303 735.772 243.073C735.344 245.843 734.383 248.691 732.249 250.508C731.977 250.769 731.643 250.956 731.279 251.051C730.096 251.282 729.29 249.913 728.875 248.781C727.586 245.255 726.283 241.661 724.009 238.674C721.735 235.687 718.289 233.348 714.535 233.36C714.224 232.617 714.096 231.811 714.159 231.009C714.223 230.206 714.478 229.431 714.902 228.747C715.654 227.328 716.757 226.126 717.587 224.751C718.638 222.878 719.353 220.835 719.699 218.715C721.553 208.975 719.687 198.895 714.469 190.465C713.257 188.466 711.79 186.632 710.106 185.01C708.273 183.293 706.128 181.912 704.436 180.055C701.826 176.966 700.249 173.139 699.924 169.108C699.612 165.105 699.719 161.08 700.242 157.098C701.003 149.197 701.982 141.285 703.11 133.428C703.197 132.405 703.462 131.404 703.893 130.472C704.78 128.819 706.278 128.305 707.975 127.507Z" fill="#575A88"/>
<path d="M610.915 236.669C607.924 232.266 600.987 232.309 601.214 239.344C601.31 240.404 601.599 241.438 602.067 242.394C603.788 246.482 605.698 250.487 607.608 254.491L612.809 265.397C615.44 270.914 618.191 276.591 622.783 280.624C624.611 274.707 625.885 268.632 626.589 262.479C628.891 262.51 630.267 265.462 632.569 265.493C635.043 265.526 636.15 263.494 635.325 262.404C631.425 257.256 626.816 252.825 620.989 250.039C615.206 247.273 614.187 241.485 610.915 236.669Z" fill="#FFB8B8"/>
<path d="M623.875 132.05C624.306 132.983 624.571 133.983 624.658 135.007C625.787 142.864 626.765 150.776 627.526 158.677C628.05 162.658 628.156 166.683 627.844 170.687C627.52 174.717 625.942 178.545 623.333 181.634C621.64 183.49 619.496 184.871 617.663 186.589C615.979 188.211 614.512 190.044 613.299 192.043C608.082 200.474 606.216 210.554 608.07 220.293C608.416 222.413 609.131 224.456 610.182 226.329C611.011 227.704 612.114 228.906 612.866 230.325C613.29 231.009 613.545 231.785 613.609 232.587C613.673 233.389 613.544 234.195 613.234 234.938C609.48 234.927 606.033 237.266 603.759 240.253C601.485 243.24 600.183 246.834 598.893 250.359C598.479 251.491 597.673 252.86 596.489 252.629C596.125 252.534 595.791 252.347 595.519 252.087C593.386 250.269 592.424 247.421 591.996 244.651C591.569 241.881 591.577 239.044 590.924 236.318C589.991 232.424 586.265 214.787 585.967 213.021C585.815 212.457 582.803 202.622 585.382 198.817C586.106 197.786 603.963 149.177 607.415 143.772C610.868 138.367 615.346 133.707 619.793 129.086C621.49 129.883 622.989 130.398 623.875 132.05Z" fill="#575A88"/>
</g>
<defs>
<clipPath id="clip0_0_1">
<rect width="852.182" height="617.73" fill="white"/>
</clipPath>
</defs>
</svg>
